<svg xmlns="http://www.w3.org/2000/svg" xmlns:xlink="http://www.w3.org/1999/xlink" width="500" zoomAndPan="magnify" viewBox="0 0 375 374.999991" height="500" preserveAspectRatio="xMidYMid meet" version="1.0"><defs><g/><clipPath id="6b5e07bc86"><path d="M 0 173.261719 L 375 173.261719 L 375 201.761719 L 0 201.761719 Z M 0 173.261719 " clip-rule="nonzero"/></clipPath></defs><rect x="-37.5" width="450" fill="#ffffff" y="-37.499999" height="449.999989" fill-opacity="1"/><rect x="-37.5" width="450" fill="#ffffff" y="-37.499999" height="449.999989" fill-opacity="1"/><rect x="-37.5" width="450" fill="#fbfaf9" y="-37.499999" height="449.999989" fill-opacity="1"/><g fill="#231f20" fill-opacity="1"><g transform="translate(-11.425012, 286.123829)"><g><path d="M 170.84375 -50.042969 C 157.390625 -82.597656 135.328125 -95.511719 108.695312 -100.351562 C 150.125 -103.582031 182.679688 -117.035156 182.679688 -157.390625 C 182.679688 -205.28125 136.941406 -215.234375 85.285156 -215.234375 L 18.832031 -215.234375 C 20.984375 -194.789062 21.792969 -182.679688 21.792969 -157.660156 L 21.792969 -57.574219 C 21.792969 -32.554688 20.984375 -20.449219 18.832031 0 L 69.953125 0 C 67.800781 -20.449219 66.992188 -32.554688 66.992188 -57.574219 L 66.992188 -99.546875 L 72.910156 -99.546875 C 98.46875 -99.546875 109.5 -92.011719 124.027344 -48.160156 C 137.75 -6.996094 168.421875 0 220.078125 0 L 220.078125 -5.113281 C 195.863281 -5.113281 184.296875 -17.21875 170.84375 -50.042969 Z M 66.992188 -105.195312 L 66.992188 -209.585938 L 84.480469 -209.585938 C 112.191406 -209.585938 136.675781 -198.824219 136.675781 -157.390625 C 136.675781 -115.957031 112.191406 -105.195312 84.480469 -105.195312 Z M 66.992188 -105.195312 "/></g></g></g><g fill="#231f20" fill-opacity="1"><g transform="translate(204.347721, 286.123829)"><g><path d="M 19.371094 -215.234375 C 21.523438 -194.789062 22.332031 -182.679688 22.332031 -157.660156 L 22.332031 -57.574219 C 22.332031 -32.554688 21.253906 -20.449219 18.832031 0 L 156.582031 0 L 166.539062 -20.984375 C 130.753906 -7.535156 114.613281 -5.648438 86.632812 -5.648438 L 67.53125 -5.648438 L 67.53125 -157.660156 C 67.53125 -182.679688 68.335938 -194.789062 70.488281 -215.234375 Z M 19.371094 -215.234375 "/></g></g></g><g clip-path="url(#6b5e07bc86)"><path fill="#fbfaf9" d="M 0 173.261719 L 375 173.261719 L 375 201.761719 L 0 201.761719 L 0 173.261719 " fill-opacity="1" fill-rule="nonzero"/></g><g fill="#dec2ba" fill-opacity="1"><g transform="translate(14.438006, 194.249987)"><g><path d="M 9.328125 0 L 7.109375 -3.6875 C 6.984375 -3.675781 6.796875 -3.671875 6.546875 -3.671875 L 3.65625 -3.671875 L 3.65625 0 L 1.59375 0 L 1.59375 -12.1875 L 6.546875 -12.1875 C 8.097656 -12.1875 9.300781 -11.820312 10.15625 -11.09375 C 11.019531 -10.375 11.453125 -9.351562 11.453125 -8.03125 C 11.453125 -7.050781 11.234375 -6.222656 10.796875 -5.546875 C 10.359375 -4.878906 9.734375 -4.390625 8.921875 -4.078125 L 11.65625 0 Z M 3.65625 -5.515625 L 6.546875 -5.515625 C 8.515625 -5.515625 9.5 -6.332031 9.5 -7.96875 C 9.5 -9.550781 8.515625 -10.34375 6.546875 -10.34375 L 3.65625 -10.34375 Z M 3.65625 -5.515625 "/></g></g></g><g fill="#dec2ba" fill-opacity="1"><g transform="translate(40.934256, 194.249987)"><g><path d="M 10.296875 -10.34375 L 3.65625 -10.34375 L 3.65625 -7.046875 L 9.609375 -7.046875 L 9.609375 -5.203125 L 3.65625 -5.203125 L 3.65625 -1.84375 L 10.515625 -1.84375 L 10.515625 0 L 1.59375 0 L 1.59375 -12.1875 L 10.296875 -12.1875 Z M 10.296875 -10.34375 "/></g></g></g><g fill="#dec2ba" fill-opacity="1"><g transform="translate(66.265336, 194.249987)"><g><path d="M 1.59375 -12.1875 L 6.890625 -12.1875 C 8.160156 -12.1875 9.160156 -11.914062 9.890625 -11.375 C 10.617188 -10.832031 10.984375 -10.085938 10.984375 -9.140625 C 10.984375 -8.453125 10.789062 -7.867188 10.40625 -7.390625 C 10.019531 -6.910156 9.5 -6.585938 8.84375 -6.421875 C 9.65625 -6.285156 10.289062 -5.941406 10.75 -5.390625 C 11.21875 -4.847656 11.453125 -4.164062 11.453125 -3.34375 C 11.453125 -2.300781 11.054688 -1.484375 10.265625 -0.890625 C 9.484375 -0.296875 8.398438 0 7.015625 0 L 1.59375 0 Z M 3.65625 -10.359375 L 3.65625 -7.140625 L 6.78125 -7.140625 C 7.4375 -7.140625 7.945312 -7.28125 8.3125 -7.5625 C 8.6875 -7.851562 8.875 -8.253906 8.875 -8.765625 C 8.875 -9.273438 8.691406 -9.664062 8.328125 -9.9375 C 7.960938 -10.21875 7.445312 -10.359375 6.78125 -10.359375 Z M 3.65625 -5.328125 L 3.65625 -1.828125 L 6.78125 -1.828125 C 7.59375 -1.828125 8.222656 -1.976562 8.671875 -2.28125 C 9.117188 -2.59375 9.34375 -3.035156 9.34375 -3.609375 C 9.34375 -4.140625 9.113281 -4.554688 8.65625 -4.859375 C 8.207031 -5.171875 7.582031 -5.328125 6.78125 -5.328125 Z M 3.65625 -5.328125 "/></g></g></g><g fill="#dec2ba" fill-opacity="1"><g transform="translate(92.465936, 194.249987)"><g><path d="M 10.296875 -10.34375 L 3.65625 -10.34375 L 3.65625 -7.046875 L 9.609375 -7.046875 L 9.609375 -5.203125 L 3.65625 -5.203125 L 3.65625 -1.84375 L 10.515625 -1.84375 L 10.515625 0 L 1.59375 0 L 1.59375 -12.1875 L 10.296875 -12.1875 Z M 10.296875 -10.34375 "/></g></g></g><g fill="#dec2ba" fill-opacity="1"><g transform="translate(117.797019, 194.249987)"><g><path d="M 7 -12.234375 C 7.851562 -12.234375 8.6875 -12.066406 9.5 -11.734375 C 10.320312 -11.410156 11.03125 -10.953125 11.625 -10.359375 L 10.421875 -8.859375 C 9.984375 -9.335938 9.460938 -9.710938 8.859375 -9.984375 C 8.253906 -10.265625 7.644531 -10.40625 7.03125 -10.40625 C 5.8125 -10.40625 4.78125 -9.988281 3.9375 -9.15625 C 3.101562 -8.332031 2.6875 -7.320312 2.6875 -6.125 C 2.6875 -4.914062 3.101562 -3.894531 3.9375 -3.0625 C 4.78125 -2.238281 5.8125 -1.828125 7.03125 -1.828125 C 8.289062 -1.828125 9.421875 -2.304688 10.421875 -3.265625 L 11.640625 -1.921875 C 11.015625 -1.296875 10.285156 -0.800781 9.453125 -0.4375 C 8.617188 -0.0820312 7.773438 0.09375 6.921875 0.09375 C 5.140625 0.09375 3.640625 -0.5 2.421875 -1.6875 C 1.203125 -2.882812 0.59375 -4.359375 0.59375 -6.109375 C 0.59375 -7.835938 1.207031 -9.289062 2.4375 -10.46875 C 3.675781 -11.644531 5.195312 -12.234375 7 -12.234375 Z M 7 -12.234375 "/></g></g></g><g fill="#dec2ba" fill-opacity="1"><g transform="translate(143.841115, 194.249987)"><g><path d="M 7 -12.234375 C 7.851562 -12.234375 8.6875 -12.066406 9.5 -11.734375 C 10.320312 -11.410156 11.03125 -10.953125 11.625 -10.359375 L 10.421875 -8.859375 C 9.984375 -9.335938 9.460938 -9.710938 8.859375 -9.984375 C 8.253906 -10.265625 7.644531 -10.40625 7.03125 -10.40625 C 5.8125 -10.40625 4.78125 -9.988281 3.9375 -9.15625 C 3.101562 -8.332031 2.6875 -7.320312 2.6875 -6.125 C 2.6875 -4.914062 3.101562 -3.894531 3.9375 -3.0625 C 4.78125 -2.238281 5.8125 -1.828125 7.03125 -1.828125 C 8.289062 -1.828125 9.421875 -2.304688 10.421875 -3.265625 L 11.640625 -1.921875 C 11.015625 -1.296875 10.285156 -0.800781 9.453125 -0.4375 C 8.617188 -0.0820312 7.773438 0.09375 6.921875 0.09375 C 5.140625 0.09375 3.640625 -0.5 2.421875 -1.6875 C 1.203125 -2.882812 0.59375 -4.359375 0.59375 -6.109375 C 0.59375 -7.835938 1.207031 -9.289062 2.4375 -10.46875 C 3.675781 -11.644531 5.195312 -12.234375 7 -12.234375 Z M 7 -12.234375 "/></g></g></g><g fill="#dec2ba" fill-opacity="1"><g transform="translate(169.885212, 194.249987)"><g><path d="M 9.46875 -2.75 L 3.328125 -2.75 L 2.15625 0 L 0.015625 0 L 5.390625 -12.1875 L 7.5 -12.1875 L 12.828125 0 L 10.640625 0 Z M 8.6875 -4.578125 L 6.390625 -9.984375 L 4.09375 -4.578125 Z M 8.6875 -4.578125 "/></g></g></g><g fill="#dec2ba" fill-opacity="1"><g transform="translate(196.64232, 194.249987)"><g/></g></g><g fill="#dec2ba" fill-opacity="1"><g transform="translate(215.05196, 194.249987)"><g><path d="M 3.65625 -1.859375 L 8.921875 -1.859375 L 8.921875 0 L 1.59375 0 L 1.59375 -12.1875 L 3.65625 -12.1875 Z M 3.65625 -1.859375 "/></g></g></g><g fill="#dec2ba" fill-opacity="1"><g transform="translate(238.261377, 194.249987)"><g><path d="M 9.46875 -2.75 L 3.328125 -2.75 L 2.15625 0 L 0.015625 0 L 5.390625 -12.1875 L 7.5 -12.1875 L 12.828125 0 L 10.640625 0 Z M 8.6875 -4.578125 L 6.390625 -9.984375 L 4.09375 -4.578125 Z M 8.6875 -4.578125 "/></g></g></g><g fill="#dec2ba" fill-opacity="1"><g transform="translate(265.018486, 194.249987)"><g><path d="M 6.59375 -4.0625 L 6.59375 0 L 4.5625 0 L 4.5625 -3.984375 L 0.015625 -12.1875 L 2.09375 -12.1875 L 5.5625 -6.25 L 8.984375 -12.1875 L 11.078125 -12.1875 Z M 6.59375 -4.0625 "/></g></g></g><g fill="#dec2ba" fill-opacity="1"><g transform="translate(290.019133, 194.249987)"><g><path d="M 14.484375 0 L 12.578125 0 L 12.5625 -9.109375 L 8.71875 -1.265625 L 7.375 -1.265625 L 3.53125 -9.109375 L 3.53125 0 L 1.59375 0 L 1.59375 -12.1875 L 4.03125 -12.1875 L 8.0625 -4.09375 L 12.0625 -12.1875 L 14.484375 -12.1875 Z M 14.484375 0 "/></g></g></g><g fill="#dec2ba" fill-opacity="1"><g transform="translate(320.028263, 194.249987)"><g><path d="M 9.46875 -2.75 L 3.328125 -2.75 L 2.15625 0 L 0.015625 0 L 5.390625 -12.1875 L 7.5 -12.1875 L 12.828125 0 L 10.640625 0 Z M 8.6875 -4.578125 L 6.390625 -9.984375 L 4.09375 -4.578125 Z M 8.6875 -4.578125 "/></g></g></g><g fill="#dec2ba" fill-opacity="1"><g transform="translate(346.785372, 194.249987)"><g><path d="M 12.171875 0 L 10.140625 0 L 3.65625 -8.734375 L 3.65625 0 L 1.59375 0 L 1.59375 -12.1875 L 3.625 -12.1875 L 10.140625 -3.421875 L 10.140625 -12.1875 L 12.171875 -12.1875 Z M 12.171875 0 "/></g></g></g></svg>